<?xml version="1.0" standalone="no"?>
<!DOCTYPE svg PUBLIC "-//W3C//DTD SVG 20010904//EN"
 "http://www.w3.org/TR/2001/REC-SVG-20010904/DTD/svg10.dtd">
<svg version="1.0" xmlns="http://www.w3.org/2000/svg"
 width="700.000000pt" height="700.000000pt" viewBox="0 0 700.000000 700.000000"
 preserveAspectRatio="xMidYMid meet">
<metadata>
Created by potrace 1.11, written by Peter Selinger 2001-2013
</metadata>
<g transform="translate(0.000000,700.000000) scale(0.100000,-0.100000)"
fill="#000000" stroke="none">
<path d="M3500 5717 l0 -464 108 -6 c225 -14 429 -66 642 -164 353 -164 669
-480 833 -833 118 -255 162 -458 162 -740 -1 -194 -11 -282 -51 -442 -137
-549 -540 -999 -1077 -1204 -202 -77 -380 -108 -617 -108 -184 0 -273 10 -431
50 -275 68 -522 202 -754 408 l-51 45 -332 -332 -332 -332 97 -85 c378 -335
828 -557 1307 -644 676 -124 1348 3 1921 363 517 325 910 819 1111 1395 168
482 190 1018 63 1526 -257 1032 -1111 1820 -2159 1994 -109 18 -299 36 -382
36 l-58 0 0 -463z m2308 -2003 c79 -33 142 -128 142 -214 0 -91 -72 -193 -156
-220 -57 -19 -152 -8 -202 24 -109 68 -139 218 -66 328 24 38 82 81 120 91 42
10 127 6 162 -9z"/>
<path d="M3500 4316 l0 -463 51 -6 c200 -24 336 -225 289 -428 -56 -240 -345
-349 -536 -203 l-47 36 -331 -331 -330 -330 33 -35 c49 -51 175 -139 273 -191
364 -193 830 -193 1198 1 397 209 657 615 677 1055 27 581 -301 1081 -841
1283 -107 40 -295 76 -397 76 l-39 0 0 -464z m908 -602 c79 -33 142 -128 142
-214 0 -91 -72 -193 -156 -220 -57 -19 -152 -8 -202 24 -139 88 -141 303 -4
390 21 13 47 26 58 29 42 10 127 6 162 -9z"/>
</g>
</svg>
