<?xml version="1.0" encoding="utf-8"?>
<!-- Generator: Adobe Illustrator 21.1.0, SVG Export Plug-In . SVG Version: 6.00 Build 0)  -->
<svg version="1.1" id="Logos" xmlns="http://www.w3.org/2000/svg" xmlns:xlink="http://www.w3.org/1999/xlink" x="0px" y="0px"
	 viewBox="0 0 150 150" style="enable-background:new 0 0 150 150;" xml:space="preserve">
<style type="text/css">
	.st0{fill:#999999;}
</style>
<path class="st0" d="M135,75c0,33.1-26.9,60-60,60s-60-26.9-60-60c0-30.5,22.9-55.8,52.5-59.5v15.2C46.2,34.3,30,52.7,30,75
	c0,24.8,20.2,45,45,45c24.8,0,45-20.2,45-45h-15c0,16.5-13.5,30-30,30c-16.5,0-30-13.5-30-30c0-13.9,9.6-25.6,22.5-28.9v16
	C63,64.7,60,69.5,60,75c0,8.3,6.7,15,15,15c8.3,0,15-6.7,15-15c0-5.5-3-10.3-7.5-12.9V0H75C33.6,0,0,33.6,0,75c0,41.4,33.6,75,75,75
	c41.4,0,75-33.6,75-75H135z"/>
</svg>
