<?xml version="1.0" encoding="utf-8"?>
<!-- Generator: Adobe Illustrator 21.1.0, SVG Export Plug-In . SVG Version: 6.00 Build 0)  -->
<svg version="1.1" id="Logos" xmlns="http://www.w3.org/2000/svg" xmlns:xlink="http://www.w3.org/1999/xlink" x="0px" y="0px"
	 viewBox="0 0 60 60" style="enable-background:new 0 0 60 60;" xml:space="preserve">
<style type="text/css">
	.st0{enable-background:new    ;}
	.st1{fill:#03A9F4;}
	.st2{fill:#F44336;}
	.st3{opacity:0.1;enable-background:new    ;}
	.st4{opacity:0.25;enable-background:new    ;}
	.st5{fill:#FFFFFF;}
</style>
<g class="st0">
	<path class="st1" d="M45,30c0-8.3-6.7-15-15-15V7c12.7,0,23,10.3,23,23H45z"/>
</g>
<g class="st0">
	<path class="st1" d="M41,30h-8c0-1.7-1.3-3-3-3v-8C36.1,19,41,23.9,41,30z"/>
</g>
<g class="st0">
	<path class="st2" d="M30,41c-2.9,0-5.7-1.1-7.8-3.2l5.7-5.7c0.6,0.6,1.3,0.9,2.1,0.9c1.7,0,3-1.3,3-3h8C41,36.1,36.1,41,30,41z"/>
</g>
<path class="st3" d="M60,30c0,16.6-13.4,30-30,30S0,46.6,0,30S13.4,0,30,0S60,13.4,60,30z M30,1C14,1,1,14,1,30s13,29,29,29
	s29-13,29-29S46,1,30,1z"/>
<g>
	<path class="st4" d="M33,30v10.6c4.6-1.3,8-5.5,8-10.6C41,30,33,30,33,30z"/>
</g>
<circle class="st2" cx="37" cy="30" r="4"/>
<circle class="st5" cx="37" cy="30" r="2"/>
<path class="st2" d="M45,30c0,8.3-6.7,15-15,15l0,0c-4,0-7.8-1.6-10.6-4.4l-5.7,5.7C18.1,50.6,23.9,53,30,53l0,0
	c12.7,0,23-10.3,23-23H45z"/>
<path class="st4" d="M45,47.4c4.9-4.2,8-10.5,8-17.4h-8V47.4z"/>
<circle class="st2" cx="49" cy="30" r="4"/>
<circle class="st5" cx="49" cy="30" r="2"/>
<path d="M41,41"/>
<path class="st4" d="M33,44.7v8.1c2.9-0.4,5.6-1.3,8-2.6v-10C38.9,42.4,36.1,44.1,33,44.7z"/>
</svg>
